<svg xmlns="http://www.w3.org/2000/svg" id="mainsvg" width="1443.1742187500001" height="385.7875" viewBox="-10 -10 1311.9765625 351.625"><defs><marker id="arrow" viewBox="0 0 10 10" refX="10" refY="5" markerWidth="5" markerHeight="5" orient="auto-start-reverse" fill="black"><path stroke="black" d="M 0 0 L 10 5 L 0 10 z"/></marker><marker id="Many" viewBox="0 0 16 16" refX="15" refY="8" markerWidth="15" markerHeight="15" orient="auto-start-reverse"><path stroke="black" d="M0 8H15M15 15L2 8L15 1" fill="none"/></marker><marker id="ZeroOrOne" viewBox="0 0 16 10" refX="15" refY="5" markerWidth="21" markerHeight="21" orient="auto-start-reverse"><path d="M9 5H16" stroke="black" fill="none"/><circle cx="5" cy="5" r="4.5" stroke="black" fill="#fff"/><path d="M12 0L12 10" stroke="black" fill="none"/></marker><marker id="OneOnlyOne" viewBox="0 0 10 14" refX="10" refY="7" markerWidth="13" markerHeight="13" orient="auto-start-reverse"><path d="M0 7H4M4 7H7M4 7V0M4 7V14M7 7H10M7 7V0M7 7V14" stroke="black" fill="none"/></marker><marker id="OneOrMany" viewBox="0 0 16 16" refX="15" refY="8" markerWidth="15" markerHeight="15" orient="auto-start-reverse"><path stroke="black" d="M2 1V15M2 8L15 15M2 8L15 1M2 8H0M2 8H15" fill="none"/></marker><marker id="ZeroOrMany" viewBox="0 0 25 16" refX="23" refY="8" markerWidth="25" markerHeight="25" orient="auto-start-reverse"><path d="M13 8H27M27 15L14 8L27 1" stroke="black" fill="none"/><path d="M13.5 7.5C13.5 10.7795 10.6254 13.5 7 13.5C3.37461 13.5 0.5 10.7795 0.5 7.5C0.5 4.22054 3.37461 1.5 7 1.5C10.6254 1.5 13.5 4.22054 13.5 7.5Z" stroke="black" fill="#fff"/></marker><marker id="aggregation" viewBox="0 0 10 6" refX="9.3" refY="2.8" markerWidth="23" markerHeight="15" orient="auto-start-reverse"><path stroke="black" fill="#fff" stroke-width="0.7" d="M1.01614 2.82609L5 0.574341L8.98386 2.82609L5 5.07783L1.01614 2.82609Z"/></marker><marker id="composition" viewBox="0 0 10 6" refX="9.7" refY="2.8" markerWidth="18" markerHeight="15" orient="auto-start-reverse"><path stroke="black" fill="black" d="M1.01614 2.82609L5 0.574341L8.98386 2.82609L5 5.07783L1.01614 2.82609Z"/></marker><marker id="implementation" viewBox="0 0 8 10" refX="8" refY="5" markerWidth="20" markerHeight="20" orient="auto-start-reverse"><path stroke="black" fill="#fff" stroke-width="0.7" d="M0.750001 1.10289L7.5 5L0.750001 8.89712L0.750001 1.10289Z"/></marker><marker id="dependency" viewBox="0 0 12 12" refX="11" refY="6" markerWidth="12" markerHeight="11" orient="auto-start-reverse"><path stroke="black" fill="#fff" d="M1 5.93162H10.886M10.886 5.93162L1 0.5M10.886 5.93162L1 11"/></marker><marker id="inheritance" viewBox="0 0 8 10" refX="8" refY="5" markerWidth="20" markerHeight="20" orient="auto-start-reverse"><path stroke="black" fill="#fff" stroke-width="0.7" d="M0.750001 1.10289L7.5 5L0.750001 8.89712L0.750001 1.10289Z"/></marker><marker id="association" viewBox="0 0 12 12" refX="11" refY="6" markerWidth="12" markerHeight="11" orient="auto-start-reverse"><path stroke="black" d="M1 5.93162H10.886M10.886 5.93162L1 0.5M10.886 5.93162L1 11"/></marker><filter id="shadowOLD" x="-50%" y="-50%" width="250%" height="250%"><feDropShadow flood-color="black" flood-opacity="0.3" dx="1" dy="1" stdDeviation="2"> </feDropShadow></filter><filter id="shadow-path" filterUnits="userSpaceOnUse" x="-10" y="-10" width="1311.9765625px" height="341.625px"><feDropShadow flood-color="black" flood-opacity="0.1" dx="1" dy="1" stdDeviation="1"> </feDropShadow></filter><filter id="shadow" filterUnits="userSpaceOnUse" x="-10" y="-10" width="1411.9765625px" height="441.625px"><feDropShadow flood-color="black" flood-opacity="0.1" dx="1" dy="1" stdDeviation="1"> </feDropShadow></filter></defs><rect x="-10" y="-10" width="1311.9765625" height="341.625" fill="#fff"/><g><path transform="rotate(0,0, 0) scale(1)" d="M187,147L237,147L237,147L369,147L369,147L501,147L501,147L516,147L516,147L551,147" stroke="black" stroke-dasharray="none" stroke-width="1.3" fill="none" marker-end="url(#Many)"/><text x="197" y="137" font-size="smaller" fill="black">1</text><text x="531" y="137" font-size="smaller" fill="black">*</text></g><g><path transform="rotate(0,0, 0) scale(1)" d="M701,152L751,152L751,152L766,152L766,152L801,152" stroke="black" stroke-dasharray="none" stroke-width="1.3" fill="none" marker-end="url(#Many)"/><text x="711" y="142" font-size="smaller" fill="black"/><text x="781" y="142" font-size="smaller" fill="black"/></g><g><path transform="rotate(0,0, 0) scale(1)" d="M451,247L501,247L501,247L571,247L571,181" stroke="black" stroke-dasharray="none" stroke-width="1.3" fill="none" marker-end="url(#Many)" marker-start="url(#Many)"/><text x="461" y="237" font-size="smaller" fill="black"/><text x="581" y="191" font-size="smaller" fill="black"/></g><g><path transform="rotate(0,0, 0) scale(1)" d="M307,227L307,192L501,192L501,20L626,20L626,20L751,20L751,20L883,20L883,20L1015,20L1015,20L1030,20L1030,20L1065,20" stroke="black" stroke-dasharray="none" stroke-width="1.3" fill="none" marker-end="url(#Many)" marker-start="url(#Many)"/><text x="317" y="217" font-size="smaller" fill="black"/><text x="1045" y="10" font-size="smaller" fill="black"/></g><g><path transform="rotate(0,0, 0) scale(1)" d="M312,295L312,330L506,330L506,321L626,321L626,321L751,321L751,321L821,321L821,181" stroke="black" stroke-dasharray="none" stroke-width="1.3" fill="none" marker-end="url(#Many)" marker-start="url(#Many)"/><text x="322" y="305" font-size="smaller" fill="black"/><text x="831" y="191" font-size="smaller" fill="black"/></g><g><path transform="rotate(0,0, 0) scale(1)" d="M965,133L1015,133L1015,133L1085,133L1085,67" stroke="black" stroke-dasharray="none" stroke-width="1.3" fill="none" marker-end="url(#Many)" marker-start="url(#Many)"/><text x="975" y="123" font-size="smaller" fill="black"/><text x="1095" y="77" font-size="smaller" fill="black"/></g><g><path transform="rotate(0,0, 0) scale(1)" d="M20,181L20,216L237,216L237,252L252,252L252,252L287,252" stroke="black" stroke-dasharray="none" stroke-width="1.3" fill="none" marker-end="url(#Many)"/><text x="30" y="191" font-size="smaller" fill="black">1</text><text x="267" y="242" font-size="smaller" fill="black">*</text></g><g transform="translate(551.640625, 113.875)"><g transform="translate(0, 0)"><rect width="150" height="67.75" stroke="black" fill="white" stroke-width="1" transform="translate(0, 0)" rx="0"/><g transform="translate(0, 0)"><g transform="translate(0, 0)"><rect width="150" height="31.375" stroke="black" fill="black" stroke-width="1" transform="translate(0, 0)" rx="0"/><text fill="white" font-size="16" font-weight="bold" transform="translate(46.98828125, 7)" alignment-baseline="middle" font-family="Arial"><tspan x="0" dy="16" font-family="Arial" font-size="16" font-weight="bold">Cohorts</tspan></text></g><g transform="translate(0, 31.375)"><path d="M 0,0 L 150 0" fill="none" stroke="black" stroke-dasharray="none" stroke-width="1"/><rect width="2" height="3" stroke="none" fill="none" stroke-width="1.3" transform="translate(0, 0)" rx="2"/></g><g transform="translate(0, 34.375)"><g transform="translate(0, 0)"><rect width="150" height="23.375" stroke="none" fill="none" stroke-width="1.3" transform="translate(0, 0)" rx="0"/><g transform="translate(0, 0)"><g transform="translate(0, 1.6875)"><path transform="rotate(0,0, 0) scale(1)" d="M11.2283 9.0061V16.3709H13.4483V20H8.77164V9.00607C6.80401 8.45698 5.41319 6.65181 5.41319 4.5868C5.41319 2.06067 7.47387 0 9.99999 0C12.5261 0 14.5868 2.06067 14.5868 4.5868C14.5868 6.65181 13.196 8.45698 11.2283 9.00607V9.0061ZM9.99999 2.45676C8.81671 2.45676 7.8699 3.40357 7.8699 4.58685C7.8699 5.77013 8.81672 6.71694 9.99999 6.71694C11.1833 6.71694 12.1301 5.77012 12.1301 4.58685C12.1301 3.40357 11.1833 2.45676 9.99999 2.45676Z" stroke="black" stroke-dasharray="none" stroke-width="1" fill="white"/></g><g transform="translate(20, 0)"><g transform="translate(0, 0)"><rect width="78.921875" height="23.375" stroke="none" fill="none" stroke-width="0" transform="translate(0, 0)" rx="0"/><text fill="black" font-size="16" font-weight="normal" transform="translate(3, 3)" alignment-baseline="middle" font-family="Arial"><tspan x="0" dy="16" font-family="Arial" font-size="16" font-weight="normal">Cohort_ID</tspan></text></g></g></g></g></g><g transform="translate(0, 57.75)"><rect width="10" height="10" stroke="none" fill="none" stroke-width="1.3" transform="translate(0, 0)" rx="2"/></g></g></g></g><g transform="translate(0, 113.875)"><g transform="translate(0, 0)"><rect width="187.59375" height="67.75" stroke="black" fill="white" stroke-width="1" transform="translate(0, 0)" rx="0"/><g transform="translate(0, 0)"><g transform="translate(0, 0)"><rect width="187.59375" height="31.375" stroke="black" fill="black" stroke-width="1" transform="translate(0, 0)" rx="0"/><text fill="white" font-size="16" font-weight="bold" transform="translate(32, 7)" alignment-baseline="middle" font-family="Arial"><tspan x="0" dy="16" font-family="Arial" font-size="16" font-weight="bold">Makers Academy</tspan></text></g><g transform="translate(0, 31.375)"><path d="M 0,0 L 187.59375 0" fill="none" stroke="black" stroke-dasharray="none" stroke-width="1"/><rect width="2" height="3" stroke="none" fill="none" stroke-width="1.3" transform="translate(0, 0)" rx="2"/></g><g transform="translate(0, 34.375)"><g transform="translate(0, 0)"><rect width="187.59375" height="23.375" stroke="none" fill="none" stroke-width="1.3" transform="translate(0, 0)" rx="0"/><g transform="translate(0, 0)"><g transform="translate(0, 1.6875)"><path transform="rotate(0,0, 0) scale(1)" d="M11.2283 9.0061V16.3709H13.4483V20H8.77164V9.00607C6.80401 8.45698 5.41319 6.65181 5.41319 4.5868C5.41319 2.06067 7.47387 0 9.99999 0C12.5261 0 14.5868 2.06067 14.5868 4.5868C14.5868 6.65181 13.196 8.45698 11.2283 9.00607V9.0061ZM9.99999 2.45676C8.81671 2.45676 7.8699 3.40357 7.8699 4.58685C7.8699 5.77013 8.81672 6.71694 9.99999 6.71694C11.1833 6.71694 12.1301 5.77012 12.1301 4.58685C12.1301 3.40357 11.1833 2.45676 9.99999 2.45676Z" stroke="black" stroke-dasharray="none" stroke-width="1" fill="white"/></g><g transform="translate(20, 0)"><g transform="translate(0, 0)"><rect width="22" height="23.375" stroke="none" fill="none" stroke-width="0" transform="translate(0, 0)" rx="0"/><text fill="black" font-size="16" font-weight="normal" transform="translate(3, 3)" alignment-baseline="middle" font-family="Arial"><tspan x="0" dy="16" font-family="Arial" font-size="16" font-weight="normal">ID</tspan></text></g></g></g></g></g><g transform="translate(0, 57.75)"><rect width="10" height="10" stroke="none" fill="none" stroke-width="1.3" transform="translate(0, 0)" rx="2"/></g></g></g></g><g transform="translate(801.640625, 113.875)"><g transform="translate(0, 0)"><rect width="164.0546875" height="67.75" stroke="black" fill="white" stroke-width="1" transform="translate(0, 0)" rx="0"/><g transform="translate(0, 0)"><g transform="translate(0, 0)"><rect width="164.0546875" height="31.375" stroke="black" fill="black" stroke-width="1" transform="translate(0, 0)" rx="0"/><text fill="white" font-size="16" font-weight="bold" transform="translate(50.44921875, 7)" alignment-baseline="middle" font-family="Arial"><tspan x="0" dy="16" font-family="Arial" font-size="16" font-weight="bold">Students</tspan></text></g><g transform="translate(0, 31.375)"><path d="M 0,0 L 164.0546875 0" fill="none" stroke="black" stroke-dasharray="none" stroke-width="1"/><rect width="2" height="3" stroke="none" fill="none" stroke-width="1.3" transform="translate(0, 0)" rx="2"/></g><g transform="translate(0, 34.375)"><g transform="translate(0, 0)"><rect width="164.0546875" height="23.375" stroke="none" fill="none" stroke-width="1.3" transform="translate(0, 0)" rx="0"/><g transform="translate(0, 0)"><g transform="translate(0, 1.6875)"><path transform="rotate(0,0, 0) scale(1)" d="M11.2283 9.0061V16.3709H13.4483V20H8.77164V9.00607C6.80401 8.45698 5.41319 6.65181 5.41319 4.5868C5.41319 2.06067 7.47387 0 9.99999 0C12.5261 0 14.5868 2.06067 14.5868 4.5868C14.5868 6.65181 13.196 8.45698 11.2283 9.00607V9.0061ZM9.99999 2.45676C8.81671 2.45676 7.8699 3.40357 7.8699 4.58685C7.8699 5.77013 8.81672 6.71694 9.99999 6.71694C11.1833 6.71694 12.1301 5.77012 12.1301 4.58685C12.1301 3.40357 11.1833 2.45676 9.99999 2.45676Z" stroke="black" stroke-dasharray="none" stroke-width="1" fill="white"/></g><g transform="translate(20, 0)"><g transform="translate(0, 0)"><rect width="94.0546875" height="23.375" stroke="none" fill="none" stroke-width="0" transform="translate(0, 0)" rx="0"/><text fill="black" font-size="16" font-weight="normal" transform="translate(3, 3)" alignment-baseline="middle" font-family="Arial"><tspan x="0" dy="16" font-family="Arial" font-size="16" font-weight="normal">Students_ID</tspan></text></g></g></g></g></g><g transform="translate(0, 57.75)"><rect width="10" height="10" stroke="none" fill="none" stroke-width="1.3" transform="translate(0, 0)" rx="2"/></g></g></g></g><g transform="translate(287.59375, 227.75)"><g transform="translate(0, 0)"><rect width="164.046875" height="67.75" stroke="black" fill="white" stroke-width="1" transform="translate(0, 0)" rx="0"/><g transform="translate(0, 0)"><g transform="translate(0, 0)"><rect width="164.046875" height="31.375" stroke="black" fill="black" stroke-width="1" transform="translate(0, 0)" rx="0"/><text fill="white" font-size="16" font-weight="bold" transform="translate(50.44921875, 7)" alignment-baseline="middle" font-family="Arial"><tspan x="0" dy="16" font-family="Arial" font-size="16" font-weight="bold">Coaches</tspan></text></g><g transform="translate(0, 31.375)"><path d="M 0,0 L 164.046875 0" fill="none" stroke="black" stroke-dasharray="none" stroke-width="1"/><rect width="2" height="3" stroke="none" fill="none" stroke-width="1.3" transform="translate(0, 0)" rx="2"/></g><g transform="translate(0, 34.375)"><g transform="translate(0, 0)"><rect width="164.046875" height="23.375" stroke="none" fill="none" stroke-width="1.3" transform="translate(0, 0)" rx="0"/><g transform="translate(0, 0)"><g transform="translate(0, 1.6875)"><path transform="rotate(0,0, 0) scale(1)" d="M11.2283 9.0061V16.3709H13.4483V20H8.77164V9.00607C6.80401 8.45698 5.41319 6.65181 5.41319 4.5868C5.41319 2.06067 7.47387 0 9.99999 0C12.5261 0 14.5868 2.06067 14.5868 4.5868C14.5868 6.65181 13.196 8.45698 11.2283 9.00607V9.0061ZM9.99999 2.45676C8.81671 2.45676 7.8699 3.40357 7.8699 4.58685C7.8699 5.77013 8.81672 6.71694 9.99999 6.71694C11.1833 6.71694 12.1301 5.77012 12.1301 4.58685C12.1301 3.40357 11.1833 2.45676 9.99999 2.45676Z" stroke="black" stroke-dasharray="none" stroke-width="1" fill="white"/></g><g transform="translate(20, 0)"><g transform="translate(0, 0)"><rect width="94.046875" height="23.375" stroke="none" fill="none" stroke-width="0" transform="translate(0, 0)" rx="0"/><text fill="black" font-size="16" font-weight="normal" transform="translate(3, 3)" alignment-baseline="middle" font-family="Arial"><tspan x="0" dy="16" font-family="Arial" font-size="16" font-weight="normal">Coaches_ID</tspan></text></g></g></g></g></g><g transform="translate(0, 57.75)"><rect width="10" height="10" stroke="none" fill="none" stroke-width="1.3" transform="translate(0, 0)" rx="2"/></g></g></g></g><g transform="translate(1065.6953125, 0)"><g transform="translate(0, 0)"><rect width="226.28125" height="67.75" stroke="black" fill="white" stroke-width="1" transform="translate(0, 0)" rx="0"/><g transform="translate(0, 0)"><g transform="translate(0, 0)"><rect width="226.28125" height="31.375" stroke="black" fill="black" stroke-width="1" transform="translate(0, 0)" rx="0"/><text fill="white" font-size="16" font-weight="bold" transform="translate(52.67578125, 7)" alignment-baseline="middle" font-family="Arial"><tspan x="0" dy="16" font-family="Arial" font-size="16" font-weight="bold">Course Materials</tspan></text></g><g transform="translate(0, 31.375)"><path d="M 0,0 L 226.28125 0" fill="none" stroke="black" stroke-dasharray="none" stroke-width="1"/><rect width="2" height="3" stroke="none" fill="none" stroke-width="1.3" transform="translate(0, 0)" rx="2"/></g><g transform="translate(0, 34.375)"><g transform="translate(0, 0)"><rect width="226.28125" height="23.375" stroke="none" fill="none" stroke-width="1.3" transform="translate(0, 0)" rx="0"/><g transform="translate(0, 0)"><g transform="translate(0, 1.6875)"><path transform="rotate(0,0, 0) scale(1)" d="M11.2283 9.0061V16.3709H13.4483V20H8.77164V9.00607C6.80401 8.45698 5.41319 6.65181 5.41319 4.5868C5.41319 2.06067 7.47387 0 9.99999 0C12.5261 0 14.5868 2.06067 14.5868 4.5868C14.5868 6.65181 13.196 8.45698 11.2283 9.00607V9.0061ZM9.99999 2.45676C8.81671 2.45676 7.8699 3.40357 7.8699 4.58685C7.8699 5.77013 8.81672 6.71694 9.99999 6.71694C11.1833 6.71694 12.1301 5.77012 12.1301 4.58685C12.1301 3.40357 11.1833 2.45676 9.99999 2.45676Z" stroke="black" stroke-dasharray="none" stroke-width="1" fill="white"/></g><g transform="translate(20, 0)"><g transform="translate(0, 0)"><rect width="156.28125" height="23.375" stroke="none" fill="none" stroke-width="0" transform="translate(0, 0)" rx="0"/><text fill="black" font-size="16" font-weight="normal" transform="translate(3, 3)" alignment-baseline="middle" font-family="Arial"><tspan x="0" dy="16" font-family="Arial" font-size="16" font-weight="normal">Course_Materials_ID</tspan></text></g></g></g></g></g><g transform="translate(0, 57.75)"><rect width="10" height="10" stroke="none" fill="none" stroke-width="1.3" transform="translate(0, 0)" rx="2"/></g></g></g></g></svg>